<mxfile host="Electron" modified="2024-03-02T03:41:54.468Z" agent="Mozilla/5.0 (Windows NT 10.0; Win64; x64) AppleWebKit/537.36 (KHTML, like Gecko) draw.io/23.1.5 Chrome/120.0.6099.109 Electron/28.1.0 Safari/537.36" etag="2Br3JpPEY5JJrSluoXw-" version="23.1.5" type="device">
  <diagram name="Page-1" id="ueqk14a7z8f8IcOnAaiI">
    <mxGraphModel dx="2924" dy="1196" grid="1" gridSize="10" guides="1" tooltips="1" connect="1" arrows="1" fold="1" page="1" pageScale="1" pageWidth="850" pageHeight="1100" math="0" shadow="0">
      <root>
        <mxCell id="0" />
        <mxCell id="1" parent="0" />
        <mxCell id="_knsg-GWuSb-j_4H66LY-6" style="edgeStyle=orthogonalEdgeStyle;rounded=0;orthogonalLoop=1;jettySize=auto;html=1;exitX=1;exitY=0.5;exitDx=0;exitDy=0;entryX=0;entryY=0.5;entryDx=0;entryDy=0;" edge="1" parent="1" source="_knsg-GWuSb-j_4H66LY-1" target="_knsg-GWuSb-j_4H66LY-5">
          <mxGeometry relative="1" as="geometry" />
        </mxCell>
        <mxCell id="_knsg-GWuSb-j_4H66LY-13" value="Request" style="edgeLabel;html=1;align=center;verticalAlign=middle;resizable=0;points=[];" vertex="1" connectable="0" parent="_knsg-GWuSb-j_4H66LY-6">
          <mxGeometry x="0.1583" y="-1" relative="1" as="geometry">
            <mxPoint as="offset" />
          </mxGeometry>
        </mxCell>
        <mxCell id="_knsg-GWuSb-j_4H66LY-1" value="gRPC Server" style="rounded=0;whiteSpace=wrap;html=1;" vertex="1" parent="1">
          <mxGeometry x="120" y="400" width="160" height="40" as="geometry" />
        </mxCell>
        <mxCell id="_knsg-GWuSb-j_4H66LY-2" value="" style="endArrow=classic;html=1;rounded=0;" edge="1" parent="1">
          <mxGeometry width="50" height="50" relative="1" as="geometry">
            <mxPoint y="420" as="sourcePoint" />
            <mxPoint x="120" y="420" as="targetPoint" />
          </mxGeometry>
        </mxCell>
        <mxCell id="_knsg-GWuSb-j_4H66LY-3" value="Request" style="edgeLabel;html=1;align=center;verticalAlign=middle;resizable=0;points=[];" vertex="1" connectable="0" parent="_knsg-GWuSb-j_4H66LY-2">
          <mxGeometry x="0.2816" y="-1" relative="1" as="geometry">
            <mxPoint as="offset" />
          </mxGeometry>
        </mxCell>
        <mxCell id="_knsg-GWuSb-j_4H66LY-11" style="edgeStyle=orthogonalEdgeStyle;rounded=0;orthogonalLoop=1;jettySize=auto;html=1;exitX=0.5;exitY=0;exitDx=0;exitDy=0;entryX=0.5;entryY=0;entryDx=0;entryDy=0;endArrow=classic;endFill=1;dashed=1;dashPattern=12 12;" edge="1" parent="1" source="_knsg-GWuSb-j_4H66LY-5" target="_knsg-GWuSb-j_4H66LY-1">
          <mxGeometry relative="1" as="geometry">
            <Array as="points">
              <mxPoint x="480" y="360" />
              <mxPoint x="200" y="360" />
            </Array>
          </mxGeometry>
        </mxCell>
        <mxCell id="_knsg-GWuSb-j_4H66LY-12" value="Delegate" style="edgeLabel;html=1;align=center;verticalAlign=middle;resizable=0;points=[];" vertex="1" connectable="0" parent="_knsg-GWuSb-j_4H66LY-11">
          <mxGeometry x="-0.15" relative="1" as="geometry">
            <mxPoint as="offset" />
          </mxGeometry>
        </mxCell>
        <mxCell id="_knsg-GWuSb-j_4H66LY-14" style="edgeStyle=orthogonalEdgeStyle;rounded=0;orthogonalLoop=1;jettySize=auto;html=1;exitX=1;exitY=0.5;exitDx=0;exitDy=0;" edge="1" parent="1" source="_knsg-GWuSb-j_4H66LY-5" target="_knsg-GWuSb-j_4H66LY-10">
          <mxGeometry relative="1" as="geometry" />
        </mxCell>
        <mxCell id="_knsg-GWuSb-j_4H66LY-5" value="Resolver" style="rounded=0;whiteSpace=wrap;html=1;" vertex="1" parent="1">
          <mxGeometry x="400" y="400" width="160" height="40" as="geometry" />
        </mxCell>
        <mxCell id="_knsg-GWuSb-j_4H66LY-8" value="" style="endArrow=none;dashed=1;html=1;dashPattern=1 3;strokeWidth=2;rounded=0;" edge="1" parent="1">
          <mxGeometry width="50" height="50" relative="1" as="geometry">
            <mxPoint x="620" y="560" as="sourcePoint" />
            <mxPoint x="620" y="280" as="targetPoint" />
          </mxGeometry>
        </mxCell>
        <mxCell id="_knsg-GWuSb-j_4H66LY-9" value="Transport" style="text;html=1;align=center;verticalAlign=middle;whiteSpace=wrap;rounded=0;" vertex="1" parent="1">
          <mxGeometry x="590" y="250" width="60" height="30" as="geometry" />
        </mxCell>
        <mxCell id="_knsg-GWuSb-j_4H66LY-19" style="edgeStyle=orthogonalEdgeStyle;rounded=0;orthogonalLoop=1;jettySize=auto;html=1;exitX=1;exitY=0.5;exitDx=0;exitDy=0;entryX=0;entryY=0.5;entryDx=0;entryDy=0;" edge="1" parent="1" source="_knsg-GWuSb-j_4H66LY-10" target="_knsg-GWuSb-j_4H66LY-16">
          <mxGeometry relative="1" as="geometry" />
        </mxCell>
        <mxCell id="_knsg-GWuSb-j_4H66LY-20" style="edgeStyle=orthogonalEdgeStyle;rounded=0;orthogonalLoop=1;jettySize=auto;html=1;exitX=1;exitY=0.5;exitDx=0;exitDy=0;entryX=0;entryY=0.5;entryDx=0;entryDy=0;" edge="1" parent="1" source="_knsg-GWuSb-j_4H66LY-10" target="_knsg-GWuSb-j_4H66LY-17">
          <mxGeometry relative="1" as="geometry" />
        </mxCell>
        <mxCell id="_knsg-GWuSb-j_4H66LY-21" style="edgeStyle=orthogonalEdgeStyle;rounded=0;orthogonalLoop=1;jettySize=auto;html=1;exitX=1;exitY=0.5;exitDx=0;exitDy=0;entryX=0;entryY=0.5;entryDx=0;entryDy=0;" edge="1" parent="1" source="_knsg-GWuSb-j_4H66LY-10" target="_knsg-GWuSb-j_4H66LY-18">
          <mxGeometry relative="1" as="geometry" />
        </mxCell>
        <mxCell id="_knsg-GWuSb-j_4H66LY-10" value="Domain Aggregator" style="rounded=0;whiteSpace=wrap;html=1;" vertex="1" parent="1">
          <mxGeometry x="680" y="400" width="160" height="40" as="geometry" />
        </mxCell>
        <mxCell id="_knsg-GWuSb-j_4H66LY-16" value="Account Manager" style="rounded=0;whiteSpace=wrap;html=1;" vertex="1" parent="1">
          <mxGeometry x="960" y="320" width="160" height="40" as="geometry" />
        </mxCell>
        <mxCell id="_knsg-GWuSb-j_4H66LY-17" value="Task Manager" style="rounded=0;whiteSpace=wrap;html=1;" vertex="1" parent="1">
          <mxGeometry x="960" y="400" width="160" height="40" as="geometry" />
        </mxCell>
        <mxCell id="_knsg-GWuSb-j_4H66LY-18" value="Storage Manager" style="rounded=0;whiteSpace=wrap;html=1;" vertex="1" parent="1">
          <mxGeometry x="960" y="480" width="160" height="40" as="geometry" />
        </mxCell>
      </root>
    </mxGraphModel>
  </diagram>
</mxfile>
